{"title":"Total Recall (2012) Cam Rip IN HINDI 600 MB Team-CC.Com","uid":7505752,"size":640911360,"categoryP":"video","categoryS":"movies","magnet":"?xt=urn:btih:c9c880fe379b8f305e0f181203560da02a53c45a&amp;dn=Total+Recall+%282012%29+Cam+Rip+IN+HINDI+600+MB+Team-CC.Com&amp;tr=udp%3A%2F%2Ftracker.openbittorrent.com%3A80&amp;tr=udp%3A%2F%2Fopen.demonii.com%3A1337&amp;tr=udp%3A%2F%2Ftracker.coppersurfer.tk%3A6969&amp;tr=udp%3A%2F%2Fexodus.desync.com%3A6969","seeders":0,"leechers":1,"uploader":"TeamCC","files":1,"time":1344126293,"description":"Visit http://team-cc.com For More Exclusive Releases\n &lt;a href=&quot;\nhttp://imgul.in/images/2012/08/03/5RdpQ.jpg&quot; rel=&quot;nofollow&quot; target=&quot;_NEW&quot;&gt;\nhttp://imgul.in/images/2012/08/03/5RdpQ.jpg&lt;/a&gt;\n\nGeneral\nFormat                           : MPEG-PS\nFile size                        : 611 MiB\nDuration                         : 1h 44mn\nOverall bit rate                 : 815 Kbps\n\nVideo\nID                               : 224 (0xE0)\nFormat                           : MPEG Video\nFormat version                   : Version 2\nFormat settings, BVOP            : Yes\nFormat settings, Matrix          : Default\nDuration                         : 1h 44mn\nBit rate mode                    : Constant\nBit rate                         : 735 Kbps\nNominal bit rate                 : 1 150 Kbps\nWidth                            : 352 pixels\nHeight                           : 288 pixels\nDisplay aspect ratio             : 1.222\nFrame rate                       : 25.000 fps\nStandard                         : PAL\nColor space                      : YUV\nBit depth                        : 8 bits\nScan type                        : Progressive\nCompression mode                 : Lossy\nBits/(Pixel*Frame)               : 0.290\nStream size                      : 551 MiB (90%)\n\nAudio\nID                               : 192 (0xC0)\nFormat                           : MPEG Audio\nFormat version                   : Version 1\nFormat profile                   : Layer 2\nDuration                         : 1h 44mn\nBit rate mode                    : Constant\nBit rate                         : 64.0 Kbps\nChannel(s)                       : 2 channels\nSampling rate                    : 48.0 KHz\nCompression mode                 : Lossy\nStream size                      : 48.0 MiB (8%)\n\nVisit http://team-cc.com For More Exclusive Releases","torrent":{"xt":"urn:btih:c9c880fe379b8f305e0f181203560da02a53c45a","amp;dn":"Total+Recall+%282012%29+Cam+Rip+IN+HINDI+600+MB+Team-CC.Com","amp;tr":["udp%3A%2F%2Ftracker.openbittorrent.com%3A80","udp%3A%2F%2Fopen.demonii.com%3A1337","udp%3A%2F%2Ftracker.coppersurfer.tk%3A6969","udp%3A%2F%2Fexodus.desync.com%3A6969"],"infoHash":"c9c880fe379b8f305e0f181203560da02a53c45a","infoHashBuffer":{"type":"Buffer","data":[201,200,128,254,55,155,143,48,94,15,24,18,3,86,13,160,42,83,196,90]},"announce":[],"urlList":[]}}